<svg xmlns="http://www.w3.org/2000/svg" viewBox="0 0 119.72 166.25"><defs><style>.cls-1,.cls-2,.cls-3,.cls-4{isolation:isolate;}.cls-1,.cls-3,.cls-4{font-size:12px;}.cls-1,.cls-4{font-family:ArialMT, Arial;}.cls-1,.cls-6{letter-spacing:-0.02em;}.cls-3{font-family:Arial-ItalicMT, Arial;font-style:italic;}.cls-5{fill:none;stroke:#000;stroke-linejoin:round;stroke-width:0.8px;}</style></defs><g id="Layer_2" data-name="Layer 2"><g id="Layer_1-2" data-name="Layer 1"><g id="g7054"><g id="g7056"><g id="g7058"><g id="g7060"><text id="text7062" class="cls-1" transform="translate(0 87.04)">T</text></g></g></g></g><g id="g7064"><g id="g7066"><g id="g7068"><g id="g7070"><g id="text7072" class="cls-2"><text class="cls-3" transform="translate(14.55 87.04)">q</text></g></g></g></g></g><g id="g7076"><g id="g7078"><g id="g7080"><g id="g7082"><text id="text7084" class="cls-4" transform="translate(27.03 87.04)">F</text></g></g></g></g><g id="g7086"><g id="g7088"><g id="g7090"><g id="g7092"><text id="text7094" class="cls-1" transform="translate(85.36 87.04)">T</text></g></g></g></g><g id="g7096"><g id="g7098"><g id="g7100"><g id="g7102"><g id="text7104" class="cls-2"><text class="cls-3" transform="translate(99.91 87.04)">p</text></g></g></g></g></g><g id="g7108"><g id="g7110"><g id="g7112"><g id="g7114"><text id="text7116" class="cls-4" transform="translate(112.39 87.04)">F</text></g></g></g></g><path id="path7118" class="cls-5" d="M27.29,74.76,7.38,60.53"/><g id="g7122"><g id="g7124"><g id="g7126"><g id="g7128"><text id="text7130" class="cls-1" transform="translate(3.71 58.41)">T</text></g></g></g></g><path id="path7132" class="cls-5" d="M7.07,93.45,27,107.67"/><g id="g7136"><g id="g7138"><g id="g7140"><g id="g7142"><text id="text7144" class="cls-4" transform="translate(23.32 117.95)">F</text></g></g></g></g><path id="path7146" class="cls-5" d="M6.51,47.11a19.73,19.73,0,0,1,18.14-3l16.24,5.27a5.68,5.68,0,0,0,7.26-3.62L62.38,31.51M48.15,45.73A5.67,5.67,0,0,0,51.68,53l23,7.47A19.7,19.7,0,0,1,87.57,73.56"/><g id="g7150"><g id="g7152"><g id="g7154"><g id="g7156"><text id="text7158" class="cls-1" transform="translate(63.02 30.92)">T</text></g></g></g></g><path id="path7160" class="cls-5" d="M3.66,44.27a28.27,28.27,0,0,1,31.22-9.54l27.06,8.79a5.62,5.62,0,0,0,5.58-1.09A5.49,5.49,0,0,0,69.2,39.9a5.68,5.68,0,0,0,3.53,7.23L97.08,55a28.18,28.18,0,0,1,18.56,19.22"/><path id="path7164" class="cls-5" d="M29.27,121.09a19.71,19.71,0,0,0,18.38.8l5.15-2.4a5.68,5.68,0,0,1,7.57,2.75,5.66,5.66,0,0,1,2.75-7.56l18.05-8.42A19.68,19.68,0,0,0,89.64,91"/><path id="path7168" class="cls-5" d="M26.43,123.94a28.27,28.27,0,0,0,32.14,5.67l30.95-14.43a5.67,5.67,0,0,1,7.56,2.75l2.84,14.22m-2.84-14.22a5.66,5.66,0,0,1,2.75-7.56L105,108A28,28,0,0,0,116.15,92"/><g id="g7172"><g id="g7174"><g id="g7176"><g id="g7178"><text id="text7180" class="cls-4" transform="translate(96.26 142.43)">F</text></g></g></g></g><path id="path7182" class="cls-5" d="M73.76,20.12l8.53-8.53"/><g id="g7186"><g id="g7188"><g id="g7190"><g id="g7192"><text id="text7194" class="cls-4" transform="translate(83.64 10.3)">F</text></g></g></g></g><path id="path7196" class="cls-5" d="M69.2,39.9a68.05,68.05,0,0,0,25,93.28"/><path id="path7198" class="cls-5" d="M60.37,122.24a27,27,0,0,0,32.39,16.87"/><path id="path7200" class="cls-5" d="M102.77,143.54l8.53,8.53"/><g id="g7204"><g id="g7206"><g id="g7208"><g id="g7210"><text id="text7212" class="cls-4" transform="translate(104.41 162.35)"> <tspan class="cls-6" x="3.33" y="0"> T</tspan></text></g></g></g></g></g></g></svg>