<svg xmlns="http://www.w3.org/2000/svg" viewBox="0 0 148.34 113.64"><defs><style>.cls-1,.cls-2,.cls-3,.cls-4{isolation:isolate;}.cls-1,.cls-3,.cls-4{font-size:12px;}.cls-1,.cls-4{font-family:ArialMT, Arial;}.cls-1{letter-spacing:-0.02em;}.cls-3{font-family:Arial-ItalicMT, Arial;font-style:italic;}.cls-5{fill:none;stroke:#000;stroke-linejoin:round;stroke-width:0.8px;}</style></defs><g id="Layer_2" data-name="Layer 2"><g id="Layer_1-2" data-name="Layer 1"><g id="g5952"><g id="g5954"><g id="g5956"><text id="text5958" class="cls-1" transform="translate(0.17 54.09)">T</text></g></g></g><g id="g5962"><g id="g5964"><g id="g5966"><g id="text5968" class="cls-2"><text class="cls-3" transform="translate(15.38 54.09)">ξ</text></g></g></g></g><g id="g5974"><g id="g5976"><g id="g5978"><text id="text5980" class="cls-4" transform="translate(27.2 54.09)">F</text></g></g></g><g id="g5984"><g id="g5986"><g id="g5988"><text id="text5990" class="cls-1" transform="translate(113.98 54.09)">T</text></g></g></g><g id="g5994"><g id="g5996"><g id="g5998"><g id="text6000" class="cls-2"><text class="cls-3" transform="translate(128.54 54.09)">η</text></g></g></g></g><g id="g6006"><g id="g6008"><g id="g6010"><text id="text6012" class="cls-4" transform="translate(141.01 54.25)">F</text></g></g></g><path id="path6014" class="cls-5" d="M.38,60.83A28.25,28.25,0,0,0,27.11,79.55H84a5.67,5.67,0,0,1,5.69,5.69V99.47m0-14.23a5.67,5.67,0,0,1,5.69-5.69h22.76A28.27,28.27,0,0,0,144.9,60.83"/><g id="g6020"><g id="g6022"><g id="g6024"><text id="text6026" class="cls-4" transform="translate(84.38 109.75)"> F</text></g></g></g><path id="path6028" class="cls-5" d="M3.84,60.83a19.72,19.72,0,0,0,16.31,8.49H48.6A5.67,5.67,0,0,1,54.29,75L60,12.42M54.29,75A5.68,5.68,0,0,1,60,69.32h40.6a19.72,19.72,0,0,0,16.31-8.49"/><g id="g6034"><g id="g6036"><g id="g6038"><text id="text6040" class="cls-1" transform="translate(56.32 10.3)">T</text></g></g></g><path id="path6042" class="cls-5" d="M144.68,42a28.27,28.27,0,0,0-26.74-18.73H106.56a5.67,5.67,0,0,1-5.69-5.69l-3.7,85.36m3.7-85.36a5.67,5.67,0,0,1-5.69,5.69H55.35A28.25,28.25,0,0,0,28.61,42"/><path id="path6044" class="cls-5" d="M30.87,41.81a19.72,19.72,0,0,1,16.31-8.49H67.1a5.67,5.67,0,0,0,5.69-5.69L85,104.45M72.79,27.63a5.67,5.67,0,0,0,5.69,5.69h22.76a19.74,19.74,0,0,1,16.32,8.49"/></g></g></svg>