<svg id="Layer_1" data-name="Layer 1" xmlns="http://www.w3.org/2000/svg" viewBox="0 0 148.44 166.64"><g id="fig-a"><g id="Layer_1-2" data-name="Layer 1-2"><g id="g3399"><g id="g3401"><g id="g3403"><g id="g3405"><text id="text3407" transform="translate(0.11 37.29)" style="isolation:isolate;font-size:12px;font-family: aktiv-grotesk,sans-serif;font-weight: 300;letter-spacing:-0.0380859375em">T</text></g></g></g></g><g id="g3409"><g id="g3411"><g id="g3413"><g id="g3415"><g id="text3417"><text transform="translate(14.67 37.29)" style="isolation:isolate;font-size:12px;font-family: aktiv-grotesk,sans-serif;font-weight: 300;font-style:italic">p</text></g></g></g></g></g><g id="g3421"><g id="g3423"><g id="g3425"><g id="g3427"><text id="text3429" transform="translate(27.14 37.29)" style="isolation:isolate;font-size:12px;font-family: aktiv-grotesk,sans-serif;font-weight: 300">F</text></g></g></g></g><g id="g3431"><g id="g3433"><g id="g3435"><g id="g3437"><text id="text3439" transform="translate(113.92 37.29)" style="isolation:isolate;font-size:12px;font-family: aktiv-grotesk,sans-serif;font-weight: 300;letter-spacing:-0.0380859375em">T</text></g></g></g></g><g id="g3441"><g id="g3443"><g id="g3445"><g id="g3447"><g id="text3449"><text transform="translate(128.48 37.29)" style="isolation:isolate;font-size:12px;font-family: aktiv-grotesk,sans-serif;font-weight: 300;font-style:italic">q</text></g></g></g></g></g><g id="g3453"><g id="g3455"><g id="g3457"><g id="g3459"><text id="text3461" transform="translate(140.95 37.29)" style="isolation:isolate;font-size:12px;font-family: aktiv-grotesk,sans-serif;font-weight: 300">F</text></g></g></g></g><path id="path3463" d="M.38,24.81A28.24,28.24,0,0,1,27.11,6.09H98.24a5.68,5.68,0,0,0,5.7-5.66v0a5.67,5.67,0,0,0,5.65,5.69h8.57A28.26,28.26,0,0,1,144.9,24.81" transform="translate(0 0.2)" style="fill:none;stroke:#000;stroke-linejoin:round;stroke-width:0.800000011920929px"/><path id="path3465" d="M3.78,24.81a19.72,19.72,0,0,1,16.31-8.49H48.54a5.67,5.67,0,0,0,5.69-5.65v0a5.68,5.68,0,0,0,5.67,5.69h40.63a19.72,19.72,0,0,1,16.31,8.49" transform="translate(0 0.2)" style="fill:none;stroke:#000;stroke-linejoin:round;stroke-width:0.800000011920929px"/><path id="path3467" d="M144.62,43.5a28.26,28.26,0,0,1-26.74,18.72h-8.53a5.68,5.68,0,0,0-5.7,5.66v0A5.67,5.67,0,0,0,98,62.22H55.29A28.25,28.25,0,0,1,28.55,43.5" transform="translate(0 0.2)" style="fill:none;stroke:#000;stroke-linejoin:round;stroke-width:0.800000011920929px"/><path id="path3469" d="M30.81,43.5A19.72,19.72,0,0,0,47.12,52H75.57a5.67,5.67,0,0,1,5.69,5.65v0A5.68,5.68,0,0,1,86.93,52h14.29a19.74,19.74,0,0,0,16.28-8.5" transform="translate(0 0.2)" style="fill:none;stroke:#000;stroke-linejoin:round;stroke-width:0.800000011920929px"/></g></g><g id="fig-b"><g id="Layer_1-2-2" data-name="Layer 1-2"><g id="g4239"><g id="g4241"><g id="g4243"><g id="g4245"><text id="text4247" transform="translate(0.24 63.66)" style="isolation:isolate;font-size:12px;font-family: aktiv-grotesk,sans-serif;font-weight: 300;letter-spacing:-0.0380859375em">T</text></g></g></g></g><g id="g4249"><g id="g4251"><g id="g4253"><g id="g4255"><g id="text4257"><text transform="translate(14.8 63.66)" style="isolation:isolate;font-size:12px;font-family: aktiv-grotesk,sans-serif;font-weight: 300;font-style:italic">p</text></g></g></g></g></g><g id="g4261"><g id="g4263"><g id="g4265"><g id="g4267"><text id="text4269" transform="translate(27.27 63.66)" style="isolation:isolate;font-size:12px;font-family: aktiv-grotesk,sans-serif;font-weight: 300">F</text></g></g></g></g><g id="g4271"><g id="g4273"><g id="g4275"><g id="g4277"><text id="text4279" transform="translate(114.05 63.66)" style="isolation:isolate;font-size:12px;font-family: aktiv-grotesk,sans-serif;font-weight: 300;letter-spacing:-0.0380859375em">T</text></g></g></g></g><g id="g4281"><g id="g4283"><g id="g4285"><g id="g4287"><g id="text4289"><text transform="translate(128.61 63.66)" style="isolation:isolate;font-size:12px;font-family: aktiv-grotesk,sans-serif;font-weight: 300;font-style:italic">q</text></g></g></g></g></g><g id="g4293"><g id="g4295"><g id="g4297"><g id="g4299"><text id="text4301" transform="translate(141.08 63.66)" style="isolation:isolate;font-size:12px;font-family: aktiv-grotesk,sans-serif;font-weight: 300">F</text></g></g></g></g><path id="path4303" d="M.51,51.18A28.26,28.26,0,0,1,27.24,32.45H61.39a5.65,5.65,0,0,0,5.74-5.6.27.27,0,0,0,0-.09l8.53-14.22M67.13,26.76a5.67,5.67,0,0,0,5.65,5.69h45.56A28.26,28.26,0,0,1,145,51.18" transform="translate(0 0.2)" style="fill:none;stroke:#000;stroke-linejoin:round;stroke-width:0.800000011920929px"/><g id="g4307"><g id="g4309"><g id="g4311"><g id="g4313"><text id="text4315" transform="translate(68.61 10.63)" style="isolation:isolate;font-size:12px;font-family: aktiv-grotesk,sans-serif;font-weight: 300">  F</text></g></g></g></g><path id="path4317" d="M3.91,51.18a19.73,19.73,0,0,1,16.31-8.5H43A5.65,5.65,0,0,0,48.67,37v0l35.57,71.13M48.67,37a5.67,5.67,0,0,0,5.65,5.69h46.34A19.73,19.73,0,0,1,117,51.17" transform="translate(0 0.2)" style="fill:none;stroke:#000;stroke-linejoin:round;stroke-width:0.800000011920929px"/><path id="path4319" d="M144.75,69.86A28.25,28.25,0,0,1,118,88.59H106.63a5.68,5.68,0,0,0-5.69,5.65v0l-7.11,12.84m7.11-12.8a5.67,5.67,0,0,0-5.65-5.69H55.42A28.25,28.25,0,0,1,28.68,69.86" transform="translate(0 0.2)" style="fill:none;stroke:#000;stroke-linejoin:round;stroke-width:0.800000011920929px"/><path id="path4321" d="M30.94,69.86a19.68,19.68,0,0,0,16.31,8.5H72.86A5.67,5.67,0,0,1,78.55,84v0l11.38,22.76M78.55,84.05a5.68,5.68,0,0,1,5.65-5.69h17.11a19.68,19.68,0,0,0,16.32-8.5" transform="translate(0 0.2)" style="fill:none;stroke:#000;stroke-linejoin:round;stroke-width:0.800000011920929px"/><g id="g4325"><g id="g4327"><g id="g4329"><g id="g4331"><text id="text4333" transform="translate(86.27 118.3)" style="isolation:isolate;font-size:12px;font-family: aktiv-grotesk,sans-serif;font-weight: 300;letter-spacing:-0.0380859375em">T</text></g></g></g></g></g></g><g id="fig-c"><g id="Layer_1-2-3" data-name="Layer 1-2"><g id="g5130"><g id="g5132"><g id="g5134"><g id="text5136" style="isolation:isolate"><text transform="translate(57.96 39.69)" style="isolation:isolate;font-size:12px;font-family: aktiv-grotesk,sans-serif;font-weight: 300">“</text><text transform="translate(61.96 39.69)" style="isolation:isolate;font-size:12px;font-family: aktiv-grotesk,sans-serif;font-weight: 300;letter-spacing:-0.0380859375em">T</text></g></g></g></g><g id="g5140"><g id="g5142"><g id="g5144"><g id="text5146"><text transform="translate(75.17 39.69)" style="isolation:isolate;font-size:12px;font-family: aktiv-grotesk,sans-serif;font-weight: 300;font-style:italic">ξ</text></g></g></g></g><g id="g5152"><g id="g5154"><g id="g5156"><text id="text5158" transform="translate(84.99 39.69)" style="isolation:isolate;font-size:12px;font-family: aktiv-grotesk,sans-serif;font-weight: 300">F”</text></g></g></g><path id="path5160" d="M87.32,27.21,67.4,13" transform="translate(0 0.2)" style="fill:none;stroke:#000;stroke-linejoin:round;stroke-width:0.800000011920929px"/><g id="g5166"><g id="g5168"><g id="g5170"><text id="text5172" transform="translate(63.73 11.07)" style="isolation:isolate;font-size:12px;font-family: aktiv-grotesk,sans-serif;font-weight: 300;letter-spacing:-0.0380859375em">T</text></g></g></g><path id="path5174" d="M67,45.57,86.89,59.82" transform="translate(0 0.2)" style="fill:none;stroke:#000;stroke-linejoin:round;stroke-width:0.800000011920929px"/><g id="g5180"><g id="g5182"><g id="g5184"><text id="text5186" transform="translate(83.22 70.29)" style="isolation:isolate;font-size:12px;font-family: aktiv-grotesk,sans-serif;font-weight: 300">F</text></g></g></g></g></g><g id="fig-d"><g id="Layer_1-2-4" data-name="Layer 1-2"><g id="g5952"><g id="g5954"><g id="g5956"><text id="text5958" transform="translate(0.27 54.09)" style="isolation:isolate;font-size:12px;font-family: aktiv-grotesk,sans-serif;font-weight: 300;letter-spacing:-0.0380859375em">T</text></g></g></g><g id="g5962"><g id="g5964"><g id="g5966"><g id="text5968"><text transform="translate(15.48 54.09)" style="isolation:isolate;font-size:12px;font-family: aktiv-grotesk,sans-serif;font-weight: 300;font-style:italic">ξ</text></g></g></g></g><g id="g5974"><g id="g5976"><g id="g5978"><text id="text5980" transform="translate(27.3 54.09)" style="isolation:isolate;font-size:12px;font-family: aktiv-grotesk,sans-serif;font-weight: 300">F</text></g></g></g><g id="g5984"><g id="g5986"><g id="g5988"><text id="text5990" transform="translate(114.08 54.09)" style="isolation:isolate;font-size:12px;font-family: aktiv-grotesk,sans-serif;font-weight: 300;letter-spacing:-0.0380859375em">T</text></g></g></g><g id="g5994"><g id="g5996"><g id="g5998"><g id="text6000"><text transform="translate(128.64 54.09)" style="isolation:isolate;font-size:12px;font-family: aktiv-grotesk,sans-serif;font-weight: 300;font-style:italic">η</text></g></g></g></g><g id="g6006"><g id="g6008"><g id="g6010"><text id="text6012" transform="translate(141.11 54.25)" style="isolation:isolate;font-size:12px;font-family: aktiv-grotesk,sans-serif;font-weight: 300">F</text></g></g></g><path id="path6014" d="M.48,60.63A28.28,28.28,0,0,0,27.21,79.35H84.1A5.65,5.65,0,0,1,89.79,85V99.27m0-14.23a5.67,5.67,0,0,1,5.65-5.69h22.8A28.27,28.27,0,0,0,145,60.63" transform="translate(0 0.2)" style="fill:none;stroke:#000;stroke-linejoin:round;stroke-width:0.800000011920929px"/><g id="g6020"><g id="g6022"><g id="g6024"><text id="text6026" transform="translate(84.48 109.75)" style="isolation:isolate;font-size:12px;font-family: aktiv-grotesk,sans-serif;font-weight: 300"> F</text></g></g></g><path id="path6028" d="M3.94,60.63a19.76,19.76,0,0,0,16.31,8.49H48.7a5.65,5.65,0,0,1,5.69,5.65v0L60.1,12.22M54.39,74.8a5.68,5.68,0,0,1,5.68-5.68H100.7A19.73,19.73,0,0,0,117,60.63" transform="translate(0 0.2)" style="fill:none;stroke:#000;stroke-linejoin:round;stroke-width:0.800000011920929px"/><g id="g6034"><g id="g6036"><g id="g6038"><text id="text6040" transform="translate(56.42 10.3)" style="isolation:isolate;font-size:12px;font-family: aktiv-grotesk,sans-serif;font-weight: 300;letter-spacing:-0.0380859375em">T</text></g></g></g><path id="path6042" d="M144.78,41.8A28.25,28.25,0,0,0,118,23.07H106.66A5.68,5.68,0,0,1,101,17.42v0l-3.7,85.36M101,17.38a5.66,5.66,0,0,1-5.64,5.69H55.45A28.25,28.25,0,0,0,28.71,41.8" transform="translate(0 0.2)" style="fill:none;stroke:#000;stroke-linejoin:round;stroke-width:0.800000011920929px"/><path id="path6044" d="M31,41.61a19.71,19.71,0,0,1,16.31-8.49H67.2a5.67,5.67,0,0,0,5.69-5.65v0L85.1,104.25M72.89,27.43a5.68,5.68,0,0,0,5.65,5.69h22.8a19.7,19.7,0,0,1,16.32,8.49" transform="translate(0 0.2)" style="fill:none;stroke:#000;stroke-linejoin:round;stroke-width:0.800000011920929px"/></g></g><g id="fig-e"><g id="Layer_1-2-5" data-name="Layer 1-2"><g id="g7054"><g id="g7056"><g id="g7058"><g id="g7060"><text id="text7062" transform="translate(13.38 87.44)" style="isolation:isolate;font-size:12px;font-family: aktiv-grotesk,sans-serif;font-weight: 300;letter-spacing:-0.0380859375em">T</text></g></g></g></g><g id="g7064"><g id="g7066"><g id="g7068"><g id="g7070"><g id="text7072"><text transform="translate(27.93 87.44)" style="isolation:isolate;font-size:12px;font-family: aktiv-grotesk,sans-serif;font-weight: 300;font-style:italic">q</text></g></g></g></g></g><g id="g7076"><g id="g7078"><g id="g7080"><g id="g7082"><text id="text7084" transform="translate(40.41 87.44)" style="isolation:isolate;font-size:12px;font-family: aktiv-grotesk,sans-serif;font-weight: 300">F</text></g></g></g></g><g id="g7086"><g id="g7088"><g id="g7090"><g id="g7092"><text id="text7094" transform="translate(98.74 87.44)" style="isolation:isolate;font-size:12px;font-family: aktiv-grotesk,sans-serif;font-weight: 300;letter-spacing:-0.0380859375em">T</text></g></g></g></g><g id="g7096"><g id="g7098"><g id="g7100"><g id="g7102"><g id="text7104"><text transform="translate(113.29 87.44)" style="isolation:isolate;font-size:12px;font-family: aktiv-grotesk,sans-serif;font-weight: 300;font-style:italic">p</text></g></g></g></g></g><g id="g7108"><g id="g7110"><g id="g7112"><g id="g7114"><text id="text7116" transform="translate(125.77 87.44)" style="isolation:isolate;font-size:12px;font-family: aktiv-grotesk,sans-serif;font-weight: 300">F</text></g></g></g></g><path id="path7118" d="M40.67,75,20.76,60.73" transform="translate(0 0.2)" style="fill:none;stroke:#000;stroke-linejoin:round;stroke-width:0.800000011920929px"/><g id="g7122"><g id="g7124"><g id="g7126"><g id="g7128"><text id="text7130" transform="translate(17.09 58.81)" style="isolation:isolate;font-size:12px;font-family: aktiv-grotesk,sans-serif;font-weight: 300;letter-spacing:-0.0380859375em">T</text></g></g></g></g><path id="path7132" d="M20.45,93.65l19.93,14.22" transform="translate(0 0.2)" style="fill:none;stroke:#000;stroke-linejoin:round;stroke-width:0.800000011920929px"/><g id="g7136"><g id="g7138"><g id="g7140"><g id="g7142"><text id="text7144" transform="translate(36.7 118.35)" style="isolation:isolate;font-size:12px;font-family: aktiv-grotesk,sans-serif;font-weight: 300">F</text></g></g></g></g><path id="path7146" d="M19.89,47.31a19.7,19.7,0,0,1,18.14-3l16.24,5.27a5.68,5.68,0,0,0,7.22-3.52.42.42,0,0,0,0-.1L75.76,31.71M61.53,45.93A5.66,5.66,0,0,0,65,53.17l.08,0,23,7.47A19.68,19.68,0,0,1,101,73.76" transform="translate(0 0.2)" style="fill:none;stroke:#000;stroke-linejoin:round;stroke-width:0.800000011920929px"/><g id="g7150"><g id="g7152"><g id="g7154"><g id="g7156"><text id="text7158" transform="translate(76.4 31.32)" style="isolation:isolate;font-size:12px;font-family: aktiv-grotesk,sans-serif;font-weight: 300;letter-spacing:-0.0380859375em">T</text></g></g></g></g><path id="path7160" d="M17,44.47a28.25,28.25,0,0,1,31.22-9.54l27.06,8.79a5.65,5.65,0,0,0,5.58-1.09,5.49,5.49,0,0,0,1.68-2.53,5.68,5.68,0,0,0,3.51,7.22h0l24.35,7.87A28.18,28.18,0,0,1,129,74.42" transform="translate(0 0.2)" style="fill:none;stroke:#000;stroke-linejoin:round;stroke-width:0.800000011920929px"/><path id="path7164" d="M42.65,121.29a19.74,19.74,0,0,0,18.38.8l5.15-2.4a5.68,5.68,0,0,1,7.56,2.72v0a5.66,5.66,0,0,1,2.7-7.54l0,0,18-8.42A19.69,19.69,0,0,0,103,91.2" transform="translate(0 0.2)" style="fill:none;stroke:#000;stroke-linejoin:round;stroke-width:0.800000011920929px"/><path id="path7168" d="M39.81,124.14A28.3,28.3,0,0,0,72,129.81l31-14.43a5.66,5.66,0,0,1,7.54,2.71l0,0,2.84,14.22m-2.84-14.22a5.66,5.66,0,0,1,2.7-7.54l0,0,5.17-2.37a28.06,28.06,0,0,0,11.15-16" transform="translate(0 0.2)" style="fill:none;stroke:#000;stroke-linejoin:round;stroke-width:0.800000011920929px"/><g id="g7172"><g id="g7174"><g id="g7176"><g id="g7178"><text id="text7180" transform="translate(109.64 142.83)" style="isolation:isolate;font-size:12px;font-family: aktiv-grotesk,sans-serif;font-weight: 300">F</text></g></g></g></g><path id="path7182" d="M87.14,20.32l8.53-8.53" transform="translate(0 0.2)" style="fill:none;stroke:#000;stroke-linejoin:round;stroke-width:0.800000011920929px"/><g id="g7186"><g id="g7188"><g id="g7190"><g id="g7192"><text id="text7194" transform="translate(97.02 10.7)" style="isolation:isolate;font-size:12px;font-family: aktiv-grotesk,sans-serif;font-weight: 300">F</text></g></g></g></g><path id="path7196" d="M82.58,40.1a68.05,68.05,0,0,0,24.59,93l.41.24" transform="translate(0 0.2)" style="fill:none;stroke:#000;stroke-linejoin:round;stroke-width:0.800000011920929px"/><path id="path7198" d="M73.75,122.44a27,27,0,0,0,32.39,16.87" transform="translate(0 0.2)" style="fill:none;stroke:#000;stroke-linejoin:round;stroke-width:0.800000011920929px"/><path id="path7200" d="M116.15,143.74l8.53,8.53" transform="translate(0 0.2)" style="fill:none;stroke:#000;stroke-linejoin:round;stroke-width:0.800000011920929px"/><g id="g7204"><g id="g7206"><g id="g7208"><g id="g7210"><g id="text7212" style="isolation:isolate"><text transform="translate(117.79 162.75)" style="isolation:isolate;font-size:12px;font-family: aktiv-grotesk,sans-serif;font-weight: 300"> </text><text transform="translate(121.12 162.75)" style="isolation:isolate;font-size:12px;font-family: aktiv-grotesk,sans-serif;font-weight: 300;letter-spacing:-0.0380859375em"> T</text></g></g></g></g></g></g></g></svg>
