<svg xmlns="http://www.w3.org/2000/svg" width="26.5" height="26.5" viewBox="0 0 26.5 26.5">
  <g id="thegear" data-name="Group 16" transform="translate(-2776.75 34.5)" >
    <path id="Union_2" data-name="Union 2" d="M10.667,25.5V22.92a10.363,10.363,0,0,1-3.718-1.426L5.205,23.237,2.262,20.293l1.671-1.671A10.35,10.35,0,0,1,2.29,14.831H0V10.668H2.258A10.352,10.352,0,0,1,3.867,6.811l-1.6-1.6L5.205,2.262,6.85,3.907a10.349,10.349,0,0,1,3.817-1.49V0h4.164V2.53a10.345,10.345,0,0,1,3.6,1.6l1.867-1.867,2.943,2.944L21.3,7.146a10.347,10.347,0,0,1,1.391,3.523H25.5v4.163H22.654a10.353,10.353,0,0,1-1.42,3.46l2,2-2.943,2.944L18.33,21.274a10.343,10.343,0,0,1-3.5,1.534V25.5Z" transform="translate(2777.25 -34)" fill="none" stroke="#000" stroke-width="1px" vector-effect="non-scaling-stroke"/>
    <circle id="Ellipse_8" data-name="Ellipse 8" cx="6.245" cy="6.245" r="6.245" transform="matrix(0.695, 0.719, -0.719, 0.695, 2789.877, -30.162)" fill="none" stroke="#000" stroke-width="1px" vector-effect="non-scaling-stroke"/>
  </g>
</svg>
