<svg xmlns="http://www.w3.org/2000/svg" viewBox="0 0 555.69 35.47"><g id="layer-2" data-name="Layer 2"><g id="Layer_1-2" data-name="Layer 1"><path d="M16.45,1.11l1.38,5.95-.75.18C16,3.53,14.11,2,12.26,2H10V24c0,1.85.37,2.41,2.41,2.41h.37v.74H5v-.74h.38c2,0,2.41-.56,2.41-2.41V2H5.57C3.71,2,1.86,3.53.74,7.24L0,7.06,1.37,1.11Z"/><path d="M19.5,27.11v-.74h.19c3.34,0,3.52-.37,3.52-2.79V12.44c0-1.48,0-1.67-1.67-1.67h-2V10h.56c2.78,0,4.08-.19,4.83-.74h.37v4.82s3.15-4.64,6.12-4.64c2.23,0,4.09,1.11,4.09,3.53,0,1.22-.67,1.86-1.56,1.86a1.4,1.4,0,0,1-1.41-1.45c0-.78.37-1,.37-1.71s-.56-1.3-1.86-1.3c-2.41,0-5.75,5-5.75,5v8.17c0,2.42.18,2.79,3.52,2.79h.56v.74Z"/><path d="M52.56,24c0,1.85.37,2.41,2,2.41h.18v.74H50.51V24.7l-1,.56c-1.75,1-3.61,2.41-6.24,2.41s-3.94-1.3-3.94-3.34c0-3.16,3.86-5.35,8.54-7.62l2.6-1.26V13.93c-.11-2.79-.55-3.53-3.15-3.53-2.42,0-5.2,1.3-5.2,2.79,0,.51.18,1.15.18,1.52a1.39,1.39,0,1,1-2.78,0c0-2,4.08-5.2,8.35-5.2,4.09,0,4.65,1.86,4.65,4.46Zm-2.05,0v-7.8l-2.6,1.3C45,18.9,41.6,21,41.6,23.77c0,1.86,1.48,2.6,3,2.6,2,0,4.38-1.52,4.87-1.78Z"/><path d="M73.47,22.28a7.13,7.13,0,0,1-7.25,5.39c-4.45,0-8-3.53-8-9.1s3.53-9.1,8.36-9.1c3.52,0,6.12,2.23,6.12,4.64,0,1.23-.66,1.86-1.56,1.86a1.36,1.36,0,0,1-1.41-1.45c0-.78.37-1.15.37-1.89,0-.93-.92-2.23-3.71-2.23-3,0-5.76,2.41-5.76,8.17,0,5.39,3.35,7.8,6.32,7.8a5.93,5.93,0,0,0,5.75-4.27Z"/><path d="M83.24,10h8.17V11H83.24v11c0,2.79,1.3,4.46,4.08,4.46C91,26.37,92,22.1,92,22.1l.75.18s-.93,5.39-6.13,5.39c-3.16,0-5.39-2-5.39-5.76V11H76V10h2.42c2.78,0,3.23-.49,3.71-3.34l.56-3.35h.56Z"/><path d="M109.61,24c0,1.85.37,2.41,2,2.41h.19v.74h-4.28V24.7l-1,.56c-1.75,1-3.6,2.41-6.24,2.41-2.49,0-3.94-1.3-3.94-3.34,0-3.16,3.87-5.35,8.54-7.62l2.6-1.26V13.93c-.11-2.79-.55-3.53-3.15-3.53-2.42,0-5.2,1.3-5.2,2.79,0,.51.18,1.15.18,1.52a1.39,1.39,0,1,1-2.78,0c0-2,4.08-5.2,8.35-5.2,4.09,0,4.65,1.86,4.65,4.46Zm-2,0v-7.8l-2.6,1.3c-2.89,1.44-6.31,3.52-6.31,6.31,0,1.86,1.49,2.6,3,2.6,2,0,4.38-1.52,4.87-1.78Z"/><path d="M121.31,10h8.17V11h-8.17v11c0,2.79,1.3,4.46,4.08,4.46,3.72,0,4.65-4.27,4.65-4.27l.74.18s-.93,5.39-6.13,5.39c-3.16,0-5.38-2-5.38-5.76V11h-5.2V10h2.41c2.79,0,3.23-.49,3.71-3.34l.56-3.35h.56Z"/><path d="M148.53,24c0,1.85.37,2.41,2.05,2.41h.18v.74h-.18a10.5,10.5,0,0,0-3.72.37h-.37V24s-3.53,3.71-6.31,3.71a4.29,4.29,0,0,1-4.46-4.46v-10c0-1.86-.37-2.42-2-2.42h-.19V10h.19c2,0,3-.19,3.71-.74h.37V23.21a3,3,0,0,0,3.16,3.16c2.41,0,5.57-3.34,5.57-3.34V13.19c0-1.86-.37-2.42-2-2.42h-.19V10h.19c2,0,3-.19,3.71-.74h.37Z"/><path d="M155.89,27.67l-1.49-6.31.75-.19s1.67,5.57,7.42,5.57c3.35,0,4.83-1.86,4.83-3.71,0-5.54-12.63-2.23-12.63-8.73,0-2.79,3-4.83,6.5-4.83a7,7,0,0,1,4.46,1.3l1.67-1.3,1.49,6.31-.74.19s-1.68-5.57-6.88-5.57c-3,0-4.64,1.67-4.64,3.34,0,4.76,12.63,1.67,12.63,8.73,0,3.16-2.79,5.2-6.87,5.2a9,9,0,0,1-4.83-1.3Z"/><path d="M184,27.11v-.74h.19c2,0,2.41-.56,2.41-2.41V4.27c0-1.86-.37-2.41-2.41-2.41H184V1.11h7.43v.75h-.18c-2,0-2.42.55-2.42,2.41V24c0,1.67.37,2.22,2.42,2.22h2c2.78,0,4.83-1.48,5.94-5.2l.74.19-1.37,5.94Z"/><path d="M211.08,9.47c4.46,0,8,3.72,8,9.1s-3.53,9.1-8,9.1-8-3.71-8-9.1S206.62,9.47,211.08,9.47Zm0,17.27c3,0,5.57-2.78,5.57-8.17s-2.6-8.17-5.57-8.17-5.57,2.79-5.57,8.17S208.11,26.74,211.08,26.74Z"/><path d="M230.14,9.47a7.53,7.53,0,0,1,4.42,1.34c.66-1,1.82-2.27,3.38-2.27s2.22.93,2.22,1.67a1.31,1.31,0,0,1-1.3,1.38c-1.19,0-1.3-1.19-2.6-1.19a1.66,1.66,0,0,0-1.18.85,5.65,5.65,0,0,1,1.74,4.16c0,3.35-2.6,5.95-6.68,5.95a8,8,0,0,1-3.24-.64c-.44.23-1.59.86-1.59,1.75,0,2.34,13.55,1.41,13.55,7.61,0,3.16-3.9,5.39-8.17,5.39-5,0-8.35-1.86-8.35-5,0-2.75,2.49-4.16,4.27-4.83-1.82-.52-3.16-1.19-3.16-2.42,0-1.41,1.71-2.37,2.75-2.86a5.57,5.57,0,0,1-2.75-4.94C223.45,12.07,226.05,9.47,230.14,9.47Zm-2.57,16.42a4.53,4.53,0,0,0-3.19,4.38c0,2.6,2.41,4.27,6.31,4.27,4.09,0,6.32-2,6.32-3.9C237,27.37,231.58,26.85,227.57,25.89Zm2.57-5.46c2.78,0,4.45-2.23,4.45-5s-1.67-5-4.45-5-4.46,2.23-4.46,5S227.35,20.43,230.14,20.43Z"/><path d="M250.94,23.58c0,2.42.18,2.79,3.52,2.79h2.42v.74H243v-.74h2.41c3.35,0,3.53-.37,3.53-2.79V12.44c0-1.48,0-1.67-1.67-1.67h-3.16V10h1.68c2.78,0,4.08-.19,4.82-.74h.38ZM249.45,1.86a1.86,1.86,0,1,1-1.86,1.85A1.84,1.84,0,0,1,249.45,1.86Z"/><path d="M274.63,22.28a7.11,7.11,0,0,1-7.24,5.39c-4.46,0-8-3.53-8-9.1s3.52-9.1,8.35-9.1c3.53,0,6.13,2.23,6.13,4.64,0,1.23-.67,1.86-1.56,1.86a1.35,1.35,0,0,1-1.41-1.45c0-.78.37-1.15.37-1.89,0-.93-.93-2.23-3.71-2.23-3,0-5.76,2.41-5.76,8.17,0,5.39,3.34,7.8,6.31,7.8a5.93,5.93,0,0,0,5.76-4.27Z"/><path d="M286,9.47c4.46,0,8,3.72,8,9.1s-3.52,9.1-8,9.1-8-3.71-8-9.1S281.54,9.47,286,9.47Zm0,17.27c3,0,5.57-2.78,5.57-8.17S289,10.4,286,10.4s-5.57,2.79-5.57,8.17S283,26.74,286,26.74Z"/><path d="M298.37,16.71h11.88v.93H298.37Z"/><path d="M319.17,14.3V24c0,1.85.37,2.41,2.41,2.41h.19v.74h-7.43v-.74h.18c2.05,0,2.42-.56,2.42-2.41V4.27c0-1.86-.37-2.41-2.42-2.41h-.18V1.11h6.87c5.2,0,9.66,1.86,9.66,6.5s-4.46,6.69-9.66,6.69ZM320.84,2c-1.3,0-1.67.56-1.67,2.23v9.1h2c3.38,0,7.06-1.3,7.06-5.76S324.55,2,321.21,2Z"/><path d="M338.11,13.19s3.53-3.72,6.31-3.72a4.29,4.29,0,0,1,4.46,4.46V24c0,1.85.37,2.41,2,2.41h.19v.74h-6.5v-.74h.18c1.68,0,2-.56,2-2.41v-10a3,3,0,0,0-3.16-3.16c-2.41,0-5.57,3.34-5.57,3.34V24c0,1.85.37,2.41,2,2.41h.19v.74h-6.5v-.74H334c1.68,0,2.05-.56,2.05-2.41V4.27c0-1.86-.37-2.41-2.05-2.41h-.18V1.11H334c2.05,0,3-.37,3.72-1.11h.37Z"/><path d="M362.25,23.58c0,2.42.19,2.79,3.53,2.79h2.41v.74H354.27v-.74h2.41c3.34,0,3.53-.37,3.53-2.79V12.44c0-1.48,0-1.67-1.67-1.67h-3.16V10h1.67c2.79,0,4.09-.19,4.83-.74h.37ZM360.77,1.86a1.83,1.83,0,0,1,1.85,1.85,1.86,1.86,0,1,1-3.71,0A1.84,1.84,0,0,1,360.77,1.86Z"/><path d="M378.78,23.58c0,2.42.19,2.79,3.53,2.79h2.41v.74H370.8v-.74h2.41c3.34,0,3.53-.37,3.53-2.79v-20c0-1.49,0-1.67-1.67-1.67h-3.16V1.11h1.67c2.79,0,4.09-.37,4.83-1.11h.37Z"/><path d="M394.86,9.47c4.46,0,8,3.72,8,9.1s-3.53,9.1-8,9.1-8-3.71-8-9.1S390.41,9.47,394.86,9.47Zm0,17.27c3,0,5.58-2.78,5.58-8.17s-2.6-8.17-5.58-8.17-5.57,2.79-5.57,8.17S391.89,26.74,394.86,26.74Z"/><path d="M408.27,27.67l-1.48-6.31.74-.19s1.67,5.57,7.43,5.57c3.34,0,4.83-1.86,4.83-3.71,0-5.54-12.63-2.23-12.63-8.73,0-2.79,3-4.83,6.5-4.83a7,7,0,0,1,4.45,1.3l1.68-1.3,1.48,6.31-.74.19s-1.67-5.57-6.87-5.57c-3,0-4.64,1.67-4.64,3.34,0,4.76,12.62,1.67,12.62,8.73,0,3.16-2.78,5.2-6.87,5.2a9,9,0,0,1-4.83-1.3Z"/><path d="M433.57,9.47c4.45,0,8,3.72,8,9.1s-3.53,9.1-8,9.1-8-3.71-8-9.1S429.11,9.47,433.57,9.47Zm0,17.27c3,0,5.57-2.78,5.57-8.17s-2.6-8.17-5.57-8.17S428,13.19,428,18.57,430.6,26.74,433.57,26.74Z"/><path d="M448.91,31.75c0,1.86.37,2.42,2,2.42h.37v.74h-6.68v-.74h.18c1.67,0,2-.56,2-2.42V13.19c0-1.86-.37-2.42-2-2.42h-.18V10h.18c2,0,3-.19,3.72-.74h.37v3a5.78,5.78,0,0,1,5-2.79c4.64,0,7.61,3.72,7.61,9.1s-3.15,9.1-8,9.1c-3.34,0-4.64-1.86-4.64-1.86Zm0-16.15v7.8c0,1.11,1.11,3.34,4.64,3.34,3.34,0,5.57-3,5.57-8.17s-2.23-8.17-5.57-8.17C450.58,10.4,448.91,13,448.91,15.6Z"/><path d="M469.08,13.19s3.52-3.72,6.31-3.72a4.29,4.29,0,0,1,4.46,4.46V24c0,1.85.37,2.41,2,2.41h.18v.74h-6.5v-.74h.19c1.67,0,2-.56,2-2.41v-10a3,3,0,0,0-3.15-3.16c-2.42,0-5.57,3.34-5.57,3.34V24c0,1.85.37,2.41,2,2.41h.18v.74h-6.5v-.74H465c1.67,0,2-.56,2-2.41V4.27c0-1.86-.37-2.41-2-2.41h-.19V1.11H465c2,0,3-.37,3.71-1.11h.38Z"/><path d="M493.22,23.58c0,2.42.18,2.79,3.53,2.79h2.41v.74H485.23v-.74h2.42c3.34,0,3.53-.37,3.53-2.79V12.44c0-1.48,0-1.67-1.68-1.67h-3.15V10H488c2.78,0,4.08-.19,4.83-.74h.37ZM491.73,1.86a1.86,1.86,0,1,1,0,3.71,1.84,1.84,0,0,1-1.85-1.86A1.83,1.83,0,0,1,491.73,1.86Z"/><path d="M516.91,22.28a7.11,7.11,0,0,1-7.24,5.39c-4.46,0-8-3.53-8-9.1s3.52-9.1,8.35-9.1c3.53,0,6.13,2.23,6.13,4.64,0,1.23-.67,1.86-1.56,1.86a1.35,1.35,0,0,1-1.41-1.45c0-.78.37-1.15.37-1.89,0-.93-.93-2.23-3.71-2.23-3,0-5.76,2.41-5.76,8.17,0,5.39,3.34,7.8,6.32,7.8a5.93,5.93,0,0,0,5.75-4.27Z"/><path d="M535,24c0,1.85.37,2.41,2,2.41h.18v.74H537a10.57,10.57,0,0,0-3.72.37h-.37V24s-3.53,3.71-6.31,3.71a4.29,4.29,0,0,1-4.46-4.46v-10c0-1.86-.37-2.42-2-2.42h-.19V10h.19c2,0,3-.19,3.71-.74h.38V23.21a3,3,0,0,0,3.15,3.16c2.42,0,5.57-3.34,5.57-3.34V13.19c0-1.86-.37-2.42-2-2.42h-.19V10h.19c2,0,3-.19,3.71-.74H535Z"/><path d="M542.32,27.67l-1.48-6.31.74-.19s1.67,5.57,7.43,5.57c3.34,0,4.82-1.86,4.82-3.71,0-5.54-12.62-2.23-12.62-8.73,0-2.79,3-4.83,6.5-4.83a7,7,0,0,1,4.45,1.3l1.67-1.3,1.49,6.31-.74.19s-1.67-5.57-6.87-5.57c-3,0-4.65,1.67-4.65,3.34,0,4.76,12.63,1.67,12.63,8.73,0,3.16-2.78,5.2-6.87,5.2a9,9,0,0,1-4.83-1.3Z"/></g></g></svg>
