<svg xmlns="http://www.w3.org/2000/svg" viewBox="0 0 148.28 68.31"><defs><style>.cls-1,.cls-2,.cls-3,.cls-4{isolation:isolate;}.cls-1,.cls-3,.cls-4{font-size:12px;}.cls-1,.cls-4{font-family:ArialMT, Arial;}.cls-1{letter-spacing:-0.02em;}.cls-3{font-family:Arial-ItalicMT, Arial;font-style:italic;}.cls-5{fill:none;stroke:#000;stroke-linejoin:round;stroke-width:0.8px;}</style></defs><g id="Layer_2" data-name="Layer 2"><g id="Layer_1-2" data-name="Layer 1"><g id="g3399"><g id="g3401"><g id="g3403"><g id="g3405"><text id="text3407" class="cls-1" transform="translate(0.11 37.09)">T</text></g></g></g></g><g id="g3409"><g id="g3411"><g id="g3413"><g id="g3415"><g id="text3417" class="cls-2"><text class="cls-3" transform="translate(14.67 37.09)">p</text></g></g></g></g></g><g id="g3421"><g id="g3423"><g id="g3425"><g id="g3427"><text id="text3429" class="cls-4" transform="translate(27.14 37.09)">F</text></g></g></g></g><g id="g3431"><g id="g3433"><g id="g3435"><g id="g3437"><text id="text3439" class="cls-1" transform="translate(113.92 37.09)">T</text></g></g></g></g><g id="g3441"><g id="g3443"><g id="g3445"><g id="g3447"><g id="text3449" class="cls-2"><text class="cls-3" transform="translate(128.48 37.09)">q</text></g></g></g></g></g><g id="g3453"><g id="g3455"><g id="g3457"><g id="g3459"><text id="text3461" class="cls-4" transform="translate(140.95 37.09)">F</text></g></g></g></g><path id="path3463" class="cls-5" d="M.38,24.81A28.25,28.25,0,0,1,27.11,6.09H98.24A5.68,5.68,0,0,0,103.94.4a5.67,5.67,0,0,0,5.69,5.69h8.53A28.27,28.27,0,0,1,144.9,24.81"/><path id="path3465" class="cls-5" d="M3.78,24.81a19.72,19.72,0,0,1,16.31-8.49H48.54a5.67,5.67,0,0,0,5.69-5.69,5.68,5.68,0,0,0,5.7,5.69h40.6a19.72,19.72,0,0,1,16.31,8.49"/><path id="path3467" class="cls-5" d="M144.62,43.5a28.27,28.27,0,0,1-26.74,18.72h-8.53a5.68,5.68,0,0,0-5.7,5.69A5.67,5.67,0,0,0,98,62.22H55.29A28.25,28.25,0,0,1,28.55,43.5"/><path id="path3469" class="cls-5" d="M30.81,43.5A19.72,19.72,0,0,0,47.12,52H75.57a5.67,5.67,0,0,1,5.69,5.69A5.68,5.68,0,0,1,87,52h14.22A19.74,19.74,0,0,0,117.5,43.5"/></g></g></svg>