<svg xmlns="http://www.w3.org/2000/svg" viewBox="0 0 148.28 121.86"><defs><style>.cls-1,.cls-2,.cls-3,.cls-4{isolation:isolate;}.cls-1,.cls-3,.cls-4{font-size:12px;}.cls-1,.cls-4{font-family:ArialMT, Arial;}.cls-1{letter-spacing:-0.02em;}.cls-3{font-family:Arial-ItalicMT, Arial;font-style:italic;}.cls-5{fill:none;stroke:#000;stroke-linejoin:round;stroke-width:0.8px;}</style></defs><g id="Layer_2" data-name="Layer 2"><g id="Layer_1-2" data-name="Layer 1"><g id="g4239"><g id="g4241"><g id="g4243"><g id="g4245"><text id="text4247" class="cls-1" transform="translate(0.11 63.33)">T</text></g></g></g></g><g id="g4249"><g id="g4251"><g id="g4253"><g id="g4255"><g id="text4257" class="cls-2"><text class="cls-3" transform="translate(14.67 63.33)">p</text></g></g></g></g></g><g id="g4261"><g id="g4263"><g id="g4265"><g id="g4267"><text id="text4269" class="cls-4" transform="translate(27.14 63.33)">F</text></g></g></g></g><g id="g4271"><g id="g4273"><g id="g4275"><g id="g4277"><text id="text4279" class="cls-1" transform="translate(113.92 63.33)">T</text></g></g></g></g><g id="g4281"><g id="g4283"><g id="g4285"><g id="g4287"><g id="text4289" class="cls-2"><text class="cls-3" transform="translate(128.48 63.33)">q</text></g></g></g></g></g><g id="g4293"><g id="g4295"><g id="g4297"><g id="g4299"><text id="text4301" class="cls-4" transform="translate(140.95 63.33)">F</text></g></g></g></g><path id="path4303" class="cls-5" d="M.38,51.06A28.25,28.25,0,0,1,27.11,32.33H61.26A5.67,5.67,0,0,0,67,26.64l8.53-14.22M67,26.64a5.67,5.67,0,0,0,5.69,5.69h45.52A28.27,28.27,0,0,1,144.9,51.06"/><g id="g4307"><g id="g4309"><g id="g4311"><g id="g4313"><text id="text4315" class="cls-4" transform="translate(68.48 10.3)">  F</text></g></g></g></g><path id="path4317" class="cls-5" d="M3.78,51.06a19.7,19.7,0,0,1,16.31-8.5H42.85a5.67,5.67,0,0,0,5.69-5.69L84.11,108M48.54,36.87a5.67,5.67,0,0,0,5.69,5.69h46.3a19.72,19.72,0,0,1,16.31,8.49"/><path id="path4319" class="cls-5" d="M144.62,69.74a28.27,28.27,0,0,1-26.74,18.73H106.5a5.67,5.67,0,0,0-5.69,5.69L93.7,107m7.11-12.8a5.67,5.67,0,0,0-5.69-5.69H55.29A28.25,28.25,0,0,1,28.55,69.74"/><path id="path4321" class="cls-5" d="M30.81,69.74a19.7,19.7,0,0,0,16.31,8.5H72.73a5.67,5.67,0,0,1,5.69,5.69L89.8,106.69M78.42,83.93a5.67,5.67,0,0,1,5.69-5.69h17.07a19.72,19.72,0,0,0,16.32-8.5"/><g id="g4325"><g id="g4327"><g id="g4329"><g id="g4331"><text id="text4333" class="cls-1" transform="translate(86.14 117.97)">T</text></g></g></g></g></g></g></svg>